<mxfile host="app.diagrams.net" agent="Mozilla/5.0 (Windows NT 10.0; Win64; x64; rv:136.0) Gecko/20100101 Firefox/136.0" version="26.1.0">
  <diagram name="Page-1" id="c4acf3e9-155e-7222-9cf6-157b1a14988f">
    <mxGraphModel dx="1793" dy="933" grid="1" gridSize="10" guides="1" tooltips="1" connect="1" arrows="1" fold="1" page="1" pageScale="1" pageWidth="850" pageHeight="1100" background="none" math="0" shadow="0">
      <root>
        <mxCell id="0" />
        <mxCell id="1" parent="0" />
        <mxCell id="-vJRP48ZTgsoDx5BEf9M-2" value="Program" style="swimlane;fontStyle=1;align=center;verticalAlign=top;childLayout=stackLayout;horizontal=1;startSize=26;horizontalStack=0;resizeParent=1;resizeParentMax=0;resizeLast=0;collapsible=1;marginBottom=0;whiteSpace=wrap;html=1;" vertex="1" parent="1">
          <mxGeometry x="290" y="20" width="290" height="320" as="geometry" />
        </mxCell>
        <mxCell id="-vJRP48ZTgsoDx5BEf9M-4" value="" style="line;strokeWidth=1;fillColor=none;align=left;verticalAlign=middle;spacingTop=-1;spacingLeft=3;spacingRight=3;rotatable=0;labelPosition=right;points=[];portConstraint=eastwest;strokeColor=inherit;" vertex="1" parent="-vJRP48ZTgsoDx5BEf9M-2">
          <mxGeometry y="26" width="290" height="8" as="geometry" />
        </mxCell>
        <mxCell id="-vJRP48ZTgsoDx5BEf9M-5" value="&lt;div style=&quot;line-height: 150%;&quot;&gt;&lt;div&gt;&lt;div align=&quot;left&quot;&gt;&lt;font style=&quot;font-size: 14px; line-height: 150%;&quot;&gt;&lt;span class=&quot;&quot;&gt;+Main(string[])&lt;/span&gt;&lt;br&gt;&lt;span class=&quot;&quot;&gt;&lt;/span&gt;&lt;span class=&quot;&quot;&gt;  -ViewInventory(Reporting, Warehouse)&lt;/span&gt;&lt;br&gt;&lt;span class=&quot;&quot;&gt;&lt;/span&gt;&lt;span class=&quot;&quot;&gt;  -RegisterIncoming(Reporting, Warehouse)&lt;/span&gt;&lt;br&gt;&lt;span class=&quot;&quot;&gt;&lt;/span&gt;&lt;span class=&quot;&quot;&gt;  -RegisterOutcoming(Reporting, Warehouse)&lt;/span&gt;&lt;br&gt;&lt;span class=&quot;&quot;&gt;&lt;/span&gt;&lt;span class=&quot;&quot;&gt;  -ReduceProductPrice(Warehouse)&lt;/span&gt;&lt;br&gt;&lt;span class=&quot;&quot;&gt;&lt;/span&gt;&lt;span class=&quot;&quot;&gt;  -ConvertCurrency(Warehouse)&lt;/span&gt;&lt;br&gt;&lt;span class=&quot;&quot;&gt;&lt;/span&gt;&lt;span class=&quot;&quot;&gt;  -AddProductToCart(Cart, Warehouse)&lt;/span&gt;&lt;br&gt;&lt;span class=&quot;&quot;&gt;&lt;/span&gt;&lt;span class=&quot;&quot;&gt;  -RemoveProductFromCart(Cart)&lt;/span&gt;&lt;span class=&quot;&quot;&gt;&lt;br&gt;&lt;/span&gt;&lt;/font&gt;&lt;/div&gt;&lt;div align=&quot;left&quot;&gt;&lt;font style=&quot;font-size: 14px; line-height: 150%;&quot;&gt;&lt;span class=&quot;&quot;&gt;-ViewCart(Cart)&lt;/span&gt;&lt;br&gt;&lt;span class=&quot;&quot;&gt;&lt;/span&gt;&lt;span class=&quot;&quot;&gt;  -Checkout(Cart)&lt;/span&gt;&lt;br&gt;&lt;span class=&quot;&quot;&gt;&lt;/span&gt;&lt;span class=&quot;&quot;&gt;  -GetIntegerInput(string)&lt;/span&gt;&lt;br&gt;&lt;span class=&quot;&quot;&gt;&lt;/span&gt;&lt;span class=&quot;&quot;&gt;  -GetFloatInput(string)&lt;/span&gt;&lt;br&gt;&lt;span class=&quot;&quot;&gt;&lt;/span&gt;&lt;span class=&quot;&quot;&gt;  -GetDoubleInput(string)&lt;/span&gt;&lt;/font&gt;&lt;/div&gt;&lt;/div&gt;&lt;/div&gt;" style="text;strokeColor=none;fillColor=none;align=left;verticalAlign=top;spacingLeft=4;spacingRight=4;overflow=hidden;rotatable=0;points=[[0,0.5],[1,0.5]];portConstraint=eastwest;whiteSpace=wrap;html=1;" vertex="1" parent="-vJRP48ZTgsoDx5BEf9M-2">
          <mxGeometry y="34" width="290" height="286" as="geometry" />
        </mxCell>
        <mxCell id="-vJRP48ZTgsoDx5BEf9M-12" value="Reporting" style="swimlane;fontStyle=1;align=center;verticalAlign=top;childLayout=stackLayout;horizontal=1;startSize=26;horizontalStack=0;resizeParent=1;resizeParentMax=0;resizeLast=0;collapsible=1;marginBottom=0;whiteSpace=wrap;html=1;" vertex="1" parent="1">
          <mxGeometry x="90" y="395.0000000000002" width="260" height="130" as="geometry" />
        </mxCell>
        <mxCell id="-vJRP48ZTgsoDx5BEf9M-13" value="-Warehouse warehouse" style="text;strokeColor=none;fillColor=none;align=left;verticalAlign=top;spacingLeft=4;spacingRight=4;overflow=hidden;rotatable=0;points=[[0,0.5],[1,0.5]];portConstraint=eastwest;whiteSpace=wrap;html=1;" vertex="1" parent="-vJRP48ZTgsoDx5BEf9M-12">
          <mxGeometry y="26" width="260" height="26" as="geometry" />
        </mxCell>
        <mxCell id="-vJRP48ZTgsoDx5BEf9M-14" value="" style="line;strokeWidth=1;fillColor=none;align=left;verticalAlign=middle;spacingTop=-1;spacingLeft=3;spacingRight=3;rotatable=0;labelPosition=right;points=[];portConstraint=eastwest;strokeColor=inherit;" vertex="1" parent="-vJRP48ZTgsoDx5BEf9M-12">
          <mxGeometry y="52" width="260" height="8" as="geometry" />
        </mxCell>
        <mxCell id="-vJRP48ZTgsoDx5BEf9M-15" value="&lt;div&gt;+Reporting(Warehouse warehouse)&lt;/div&gt;&lt;div&gt;&lt;span class=&quot;&quot;&gt;+InventoryReport(string)&lt;br/&gt;&lt;/span&gt;&lt;span class=&quot;&quot;&gt;  +RegisterIncoming(Warehouse, Product, int)&lt;br/&gt;&lt;/span&gt;&lt;span class=&quot;&quot;&gt;  +RegisterOutcoming(Warehouse, Product, int)&lt;/span&gt;&lt;/div&gt;" style="text;strokeColor=none;fillColor=none;align=left;verticalAlign=top;spacingLeft=4;spacingRight=4;overflow=hidden;rotatable=0;points=[[0,0.5],[1,0.5]];portConstraint=eastwest;whiteSpace=wrap;html=1;" vertex="1" parent="-vJRP48ZTgsoDx5BEf9M-12">
          <mxGeometry y="60" width="260" height="70" as="geometry" />
        </mxCell>
        <mxCell id="-vJRP48ZTgsoDx5BEf9M-17" value="Cart" style="swimlane;fontStyle=1;align=center;verticalAlign=top;childLayout=stackLayout;horizontal=1;startSize=26;horizontalStack=0;resizeParent=1;resizeParentMax=0;resizeLast=0;collapsible=1;marginBottom=0;whiteSpace=wrap;html=1;" vertex="1" parent="1">
          <mxGeometry x="580" y="390.0000000000002" width="160" height="150" as="geometry" />
        </mxCell>
        <mxCell id="-vJRP48ZTgsoDx5BEf9M-18" value="-List&amp;lt;CartItem&amp;gt; items" style="text;strokeColor=none;fillColor=none;align=left;verticalAlign=top;spacingLeft=4;spacingRight=4;overflow=hidden;rotatable=0;points=[[0,0.5],[1,0.5]];portConstraint=eastwest;whiteSpace=wrap;html=1;" vertex="1" parent="-vJRP48ZTgsoDx5BEf9M-17">
          <mxGeometry y="26" width="160" height="26" as="geometry" />
        </mxCell>
        <mxCell id="-vJRP48ZTgsoDx5BEf9M-19" value="" style="line;strokeWidth=1;fillColor=none;align=left;verticalAlign=middle;spacingTop=-1;spacingLeft=3;spacingRight=3;rotatable=0;labelPosition=right;points=[];portConstraint=eastwest;strokeColor=inherit;" vertex="1" parent="-vJRP48ZTgsoDx5BEf9M-17">
          <mxGeometry y="52" width="160" height="8" as="geometry" />
        </mxCell>
        <mxCell id="-vJRP48ZTgsoDx5BEf9M-20" value="&lt;div&gt;&lt;span class=&quot;&quot;&gt;+Cart()&amp;nbsp;&lt;/span&gt;&lt;span class=&quot;&quot;&gt;&lt;/span&gt;&lt;/div&gt;&lt;div&gt;&lt;span class=&quot;&quot;&gt;+AddItem(Product, int)&amp;nbsp;&lt;/span&gt;&lt;span class=&quot;&quot;&gt;&lt;/span&gt;&lt;/div&gt;&lt;div&gt;&lt;span class=&quot;&quot;&gt;+RemoveItem(string)&amp;nbsp;&lt;/span&gt;&lt;span class=&quot;&quot;&gt;&lt;/span&gt;&lt;/div&gt;&lt;div&gt;&lt;span class=&quot;&quot;&gt;+ViewCart()&amp;nbsp;&lt;/span&gt;&lt;span class=&quot;&quot;&gt;&lt;/span&gt;&lt;/div&gt;&lt;div&gt;&lt;span class=&quot;&quot;&gt;+CalculateTotal()&lt;/span&gt;&lt;/div&gt;" style="text;strokeColor=none;fillColor=none;align=left;verticalAlign=top;spacingLeft=4;spacingRight=4;overflow=hidden;rotatable=0;points=[[0,0.5],[1,0.5]];portConstraint=eastwest;whiteSpace=wrap;html=1;" vertex="1" parent="-vJRP48ZTgsoDx5BEf9M-17">
          <mxGeometry y="60" width="160" height="90" as="geometry" />
        </mxCell>
        <mxCell id="-vJRP48ZTgsoDx5BEf9M-21" value="Warehouse" style="swimlane;fontStyle=1;align=center;verticalAlign=top;childLayout=stackLayout;horizontal=1;startSize=26;horizontalStack=0;resizeParent=1;resizeParentMax=0;resizeLast=0;collapsible=1;marginBottom=0;whiteSpace=wrap;html=1;" vertex="1" parent="1">
          <mxGeometry x="220" y="580" width="180" height="160" as="geometry" />
        </mxCell>
        <mxCell id="-vJRP48ZTgsoDx5BEf9M-22" value="&lt;span class=&quot;&quot;&gt;+string WarehouseName&lt;br/&gt;&lt;/span&gt;&lt;span class=&quot;&quot;&gt;  -List&amp;lt;Product&amp;gt; products&lt;br/&gt;&lt;/span&gt;&lt;span class=&quot;&quot;&gt;  +List&amp;lt;Product&amp;gt; Products&lt;/span&gt;" style="text;strokeColor=none;fillColor=none;align=left;verticalAlign=top;spacingLeft=4;spacingRight=4;overflow=hidden;rotatable=0;points=[[0,0.5],[1,0.5]];portConstraint=eastwest;whiteSpace=wrap;html=1;" vertex="1" parent="-vJRP48ZTgsoDx5BEf9M-21">
          <mxGeometry y="26" width="180" height="54" as="geometry" />
        </mxCell>
        <mxCell id="-vJRP48ZTgsoDx5BEf9M-23" value="" style="line;strokeWidth=1;fillColor=none;align=left;verticalAlign=middle;spacingTop=-1;spacingLeft=3;spacingRight=3;rotatable=0;labelPosition=right;points=[];portConstraint=eastwest;strokeColor=inherit;" vertex="1" parent="-vJRP48ZTgsoDx5BEf9M-21">
          <mxGeometry y="80" width="180" height="8" as="geometry" />
        </mxCell>
        <mxCell id="-vJRP48ZTgsoDx5BEf9M-24" value="&lt;div&gt;&lt;span class=&quot;&quot;&gt;+Warehouse(string)&amp;nbsp;&lt;/span&gt;&lt;span class=&quot;&quot;&gt;&lt;/span&gt;&lt;/div&gt;&lt;div&gt;&lt;span class=&quot;&quot;&gt;+AddProduct(Product)&amp;nbsp;&lt;/span&gt;&lt;span class=&quot;&quot;&gt;&lt;/span&gt;&lt;/div&gt;&lt;div&gt;&lt;span class=&quot;&quot;&gt;+ReceiveGoods(string, int)&amp;nbsp;&lt;/span&gt;&lt;span class=&quot;&quot;&gt;&lt;/span&gt;&lt;/div&gt;&lt;div&gt;&lt;span class=&quot;&quot;&gt;+ShipGoods(string, int)&lt;/span&gt;&lt;/div&gt;" style="text;strokeColor=none;fillColor=none;align=left;verticalAlign=top;spacingLeft=4;spacingRight=4;overflow=hidden;rotatable=0;points=[[0,0.5],[1,0.5]];portConstraint=eastwest;whiteSpace=wrap;html=1;" vertex="1" parent="-vJRP48ZTgsoDx5BEf9M-21">
          <mxGeometry y="88" width="180" height="72" as="geometry" />
        </mxCell>
        <mxCell id="-vJRP48ZTgsoDx5BEf9M-27" value="" style="endArrow=open;endFill=1;endSize=12;html=1;rounded=0;exitX=0.254;exitY=1.043;exitDx=0;exitDy=0;exitPerimeter=0;entryX=0.25;entryY=0;entryDx=0;entryDy=0;" edge="1" parent="1" source="-vJRP48ZTgsoDx5BEf9M-15" target="-vJRP48ZTgsoDx5BEf9M-21">
          <mxGeometry width="160" relative="1" as="geometry">
            <mxPoint x="300" y="460" as="sourcePoint" />
            <mxPoint x="460" y="460" as="targetPoint" />
          </mxGeometry>
        </mxCell>
        <mxCell id="-vJRP48ZTgsoDx5BEf9M-28" value="Reference" style="edgeLabel;html=1;align=center;verticalAlign=middle;resizable=0;points=[];" vertex="1" connectable="0" parent="-vJRP48ZTgsoDx5BEf9M-27">
          <mxGeometry x="-0.0798" y="-1" relative="1" as="geometry">
            <mxPoint x="4" as="offset" />
          </mxGeometry>
        </mxCell>
        <mxCell id="-vJRP48ZTgsoDx5BEf9M-30" value="" style="endArrow=open;endFill=1;endSize=12;html=1;rounded=0;exitX=0;exitY=0.5;exitDx=0;exitDy=0;entryX=0.5;entryY=0;entryDx=0;entryDy=0;" edge="1" parent="1" source="-vJRP48ZTgsoDx5BEf9M-5" target="-vJRP48ZTgsoDx5BEf9M-12">
          <mxGeometry width="160" relative="1" as="geometry">
            <mxPoint x="300" y="460" as="sourcePoint" />
            <mxPoint x="460" y="460" as="targetPoint" />
            <Array as="points">
              <mxPoint x="220" y="197" />
            </Array>
          </mxGeometry>
        </mxCell>
        <mxCell id="-vJRP48ZTgsoDx5BEf9M-31" value="Use" style="edgeLabel;html=1;align=center;verticalAlign=middle;resizable=0;points=[];" vertex="1" connectable="0" parent="-vJRP48ZTgsoDx5BEf9M-30">
          <mxGeometry x="0.2015" y="1" relative="1" as="geometry">
            <mxPoint as="offset" />
          </mxGeometry>
        </mxCell>
        <mxCell id="-vJRP48ZTgsoDx5BEf9M-32" value="" style="endArrow=open;endFill=1;endSize=12;html=1;rounded=0;exitX=1;exitY=0.5;exitDx=0;exitDy=0;entryX=0.5;entryY=0;entryDx=0;entryDy=0;" edge="1" parent="1" source="-vJRP48ZTgsoDx5BEf9M-5" target="-vJRP48ZTgsoDx5BEf9M-17">
          <mxGeometry width="160" relative="1" as="geometry">
            <mxPoint x="720" y="187" as="sourcePoint" />
            <mxPoint x="650" y="385" as="targetPoint" />
            <Array as="points">
              <mxPoint x="660" y="197" />
            </Array>
          </mxGeometry>
        </mxCell>
        <mxCell id="-vJRP48ZTgsoDx5BEf9M-33" value="Use" style="edgeLabel;html=1;align=center;verticalAlign=middle;resizable=0;points=[];" vertex="1" connectable="0" parent="-vJRP48ZTgsoDx5BEf9M-32">
          <mxGeometry x="0.2015" y="1" relative="1" as="geometry">
            <mxPoint as="offset" />
          </mxGeometry>
        </mxCell>
        <mxCell id="-vJRP48ZTgsoDx5BEf9M-38" value="" style="endArrow=open;endFill=1;endSize=12;html=1;rounded=0;exitX=0.5;exitY=1;exitDx=0;exitDy=0;entryX=0.75;entryY=0;entryDx=0;entryDy=0;" edge="1" parent="1" source="-vJRP48ZTgsoDx5BEf9M-2" target="-vJRP48ZTgsoDx5BEf9M-21">
          <mxGeometry width="160" relative="1" as="geometry">
            <mxPoint x="470" y="380" as="sourcePoint" />
            <mxPoint x="400" y="578" as="targetPoint" />
            <Array as="points">
              <mxPoint x="435" y="480" />
            </Array>
          </mxGeometry>
        </mxCell>
        <mxCell id="-vJRP48ZTgsoDx5BEf9M-39" value="Use" style="edgeLabel;html=1;align=center;verticalAlign=middle;resizable=0;points=[];" vertex="1" connectable="0" parent="-vJRP48ZTgsoDx5BEf9M-38">
          <mxGeometry x="0.2015" y="1" relative="1" as="geometry">
            <mxPoint as="offset" />
          </mxGeometry>
        </mxCell>
        <mxCell id="-vJRP48ZTgsoDx5BEf9M-40" value="CartItem" style="swimlane;fontStyle=1;align=center;verticalAlign=top;childLayout=stackLayout;horizontal=1;startSize=26;horizontalStack=0;resizeParent=1;resizeParentMax=0;resizeLast=0;collapsible=1;marginBottom=0;whiteSpace=wrap;html=1;" vertex="1" parent="1">
          <mxGeometry x="530" y="615.0000000000002" width="260" height="120" as="geometry" />
        </mxCell>
        <mxCell id="-vJRP48ZTgsoDx5BEf9M-41" value="&lt;div&gt;&lt;span class=&quot;&quot;&gt;+Product Product&amp;nbsp;&lt;/span&gt;&lt;span class=&quot;&quot;&gt;&lt;/span&gt;&lt;/div&gt;&lt;div&gt;&lt;span class=&quot;&quot;&gt;+int Quantity&lt;/span&gt;&lt;/div&gt;" style="text;strokeColor=none;fillColor=none;align=left;verticalAlign=top;spacingLeft=4;spacingRight=4;overflow=hidden;rotatable=0;points=[[0,0.5],[1,0.5]];portConstraint=eastwest;whiteSpace=wrap;html=1;" vertex="1" parent="-vJRP48ZTgsoDx5BEf9M-40">
          <mxGeometry y="26" width="260" height="44" as="geometry" />
        </mxCell>
        <mxCell id="-vJRP48ZTgsoDx5BEf9M-42" value="" style="line;strokeWidth=1;fillColor=none;align=left;verticalAlign=middle;spacingTop=-1;spacingLeft=3;spacingRight=3;rotatable=0;labelPosition=right;points=[];portConstraint=eastwest;strokeColor=inherit;" vertex="1" parent="-vJRP48ZTgsoDx5BEf9M-40">
          <mxGeometry y="70" width="260" height="8" as="geometry" />
        </mxCell>
        <mxCell id="-vJRP48ZTgsoDx5BEf9M-43" value="&lt;div&gt;&lt;span class=&quot;&quot;&gt;+CartItem(Product, int)&amp;nbsp;&lt;/span&gt;&lt;span class=&quot;&quot;&gt;&lt;/span&gt;&lt;/div&gt;&lt;div&gt;&lt;span class=&quot;&quot;&gt;+double TotalPrice()&lt;/span&gt;&lt;/div&gt;" style="text;strokeColor=none;fillColor=none;align=left;verticalAlign=top;spacingLeft=4;spacingRight=4;overflow=hidden;rotatable=0;points=[[0,0.5],[1,0.5]];portConstraint=eastwest;whiteSpace=wrap;html=1;" vertex="1" parent="-vJRP48ZTgsoDx5BEf9M-40">
          <mxGeometry y="78" width="260" height="42" as="geometry" />
        </mxCell>
        <mxCell id="-vJRP48ZTgsoDx5BEf9M-44" value="" style="endArrow=diamondThin;endFill=0;endSize=24;html=1;rounded=0;exitX=0.5;exitY=0;exitDx=0;exitDy=0;entryX=0.5;entryY=1;entryDx=0;entryDy=0;" edge="1" parent="1" source="-vJRP48ZTgsoDx5BEf9M-40" target="-vJRP48ZTgsoDx5BEf9M-17">
          <mxGeometry width="160" relative="1" as="geometry">
            <mxPoint x="510" y="525" as="sourcePoint" />
            <mxPoint x="350" y="525" as="targetPoint" />
          </mxGeometry>
        </mxCell>
        <mxCell id="-vJRP48ZTgsoDx5BEf9M-45" value="Contains" style="edgeLabel;html=1;align=center;verticalAlign=middle;resizable=0;points=[];" vertex="1" connectable="0" parent="-vJRP48ZTgsoDx5BEf9M-44">
          <mxGeometry x="-0.0154" y="1" relative="1" as="geometry">
            <mxPoint as="offset" />
          </mxGeometry>
        </mxCell>
        <mxCell id="-vJRP48ZTgsoDx5BEf9M-54" value="Product" style="swimlane;fontStyle=1;align=center;verticalAlign=top;childLayout=stackLayout;horizontal=1;startSize=26;horizontalStack=0;resizeParent=1;resizeParentMax=0;resizeLast=0;collapsible=1;marginBottom=0;whiteSpace=wrap;html=1;" vertex="1" parent="1">
          <mxGeometry x="325" y="810" width="220" height="180" as="geometry" />
        </mxCell>
        <mxCell id="-vJRP48ZTgsoDx5BEf9M-55" value="&lt;div&gt;&lt;span class=&quot;&quot;&gt;+string Name&lt;/span&gt;&lt;/div&gt;&lt;div&gt;&lt;span class=&quot;&quot;&gt;+Money Price&lt;/span&gt;&lt;span class=&quot;&quot;&gt;&lt;br&gt;+int Quantity&lt;br/&gt;&lt;/span&gt;&lt;span class=&quot;&quot;&gt;  +DateTime LastArrivalDate&lt;/span&gt;&lt;/div&gt;" style="text;strokeColor=none;fillColor=none;align=left;verticalAlign=top;spacingLeft=4;spacingRight=4;overflow=hidden;rotatable=0;points=[[0,0.5],[1,0.5]];portConstraint=eastwest;whiteSpace=wrap;html=1;" vertex="1" parent="-vJRP48ZTgsoDx5BEf9M-54">
          <mxGeometry y="26" width="220" height="74" as="geometry" />
        </mxCell>
        <mxCell id="-vJRP48ZTgsoDx5BEf9M-56" value="" style="line;strokeWidth=1;fillColor=none;align=left;verticalAlign=middle;spacingTop=-1;spacingLeft=3;spacingRight=3;rotatable=0;labelPosition=right;points=[];portConstraint=eastwest;strokeColor=inherit;" vertex="1" parent="-vJRP48ZTgsoDx5BEf9M-54">
          <mxGeometry y="100" width="220" height="8" as="geometry" />
        </mxCell>
        <mxCell id="-vJRP48ZTgsoDx5BEf9M-57" value="&lt;div&gt;&lt;span class=&quot;&quot;&gt;+Product(string, Money, int, DateTime)&lt;/span&gt;&lt;/div&gt;&lt;div&gt;&lt;span class=&quot;&quot;&gt;+DisplayPrice()&amp;nbsp;&lt;/span&gt;&lt;span class=&quot;&quot;&gt;&lt;/span&gt;&lt;/div&gt;&lt;div&gt;&lt;span class=&quot;&quot;&gt;+ReducePrice(double)&lt;/span&gt;&lt;/div&gt;" style="text;strokeColor=none;fillColor=none;align=left;verticalAlign=top;spacingLeft=4;spacingRight=4;overflow=hidden;rotatable=0;points=[[0,0.5],[1,0.5]];portConstraint=eastwest;whiteSpace=wrap;html=1;" vertex="1" parent="-vJRP48ZTgsoDx5BEf9M-54">
          <mxGeometry y="108" width="220" height="72" as="geometry" />
        </mxCell>
        <mxCell id="-vJRP48ZTgsoDx5BEf9M-59" value="" style="endArrow=open;endFill=1;endSize=12;html=1;rounded=0;entryX=0.75;entryY=0;entryDx=0;entryDy=0;exitX=0.503;exitY=1.003;exitDx=0;exitDy=0;exitPerimeter=0;" edge="1" parent="1" source="-vJRP48ZTgsoDx5BEf9M-43" target="-vJRP48ZTgsoDx5BEf9M-54">
          <mxGeometry width="160" relative="1" as="geometry">
            <mxPoint x="310" y="740" as="sourcePoint" />
            <mxPoint x="409" y="792" as="targetPoint" />
          </mxGeometry>
        </mxCell>
        <mxCell id="-vJRP48ZTgsoDx5BEf9M-60" value="Reference" style="edgeLabel;html=1;align=center;verticalAlign=middle;resizable=0;points=[];" vertex="1" connectable="0" parent="-vJRP48ZTgsoDx5BEf9M-59">
          <mxGeometry x="-0.0798" y="-1" relative="1" as="geometry">
            <mxPoint x="4" as="offset" />
          </mxGeometry>
        </mxCell>
        <mxCell id="-vJRP48ZTgsoDx5BEf9M-64" value="" style="endArrow=diamondThin;endFill=0;endSize=24;html=1;rounded=0;exitX=0.25;exitY=0;exitDx=0;exitDy=0;entryX=0.497;entryY=0.996;entryDx=0;entryDy=0;entryPerimeter=0;" edge="1" parent="1" source="-vJRP48ZTgsoDx5BEf9M-54" target="-vJRP48ZTgsoDx5BEf9M-24">
          <mxGeometry width="160" relative="1" as="geometry">
            <mxPoint x="309.57" y="815" as="sourcePoint" />
            <mxPoint x="309.57" y="740" as="targetPoint" />
          </mxGeometry>
        </mxCell>
        <mxCell id="-vJRP48ZTgsoDx5BEf9M-65" value="Contains" style="edgeLabel;html=1;align=center;verticalAlign=middle;resizable=0;points=[];" vertex="1" connectable="0" parent="-vJRP48ZTgsoDx5BEf9M-64">
          <mxGeometry x="-0.0154" y="1" relative="1" as="geometry">
            <mxPoint as="offset" />
          </mxGeometry>
        </mxCell>
        <mxCell id="-vJRP48ZTgsoDx5BEf9M-66" value="" style="endArrow=diamondThin;endFill=1;endSize=24;html=1;rounded=0;entryX=0.495;entryY=1;entryDx=0;entryDy=0;entryPerimeter=0;exitX=0.5;exitY=0;exitDx=0;exitDy=0;" edge="1" parent="1" source="-vJRP48ZTgsoDx5BEf9M-67" target="-vJRP48ZTgsoDx5BEf9M-57">
          <mxGeometry width="160" relative="1" as="geometry">
            <mxPoint x="434" y="1040" as="sourcePoint" />
            <mxPoint x="305" y="740" as="targetPoint" />
          </mxGeometry>
        </mxCell>
        <mxCell id="-vJRP48ZTgsoDx5BEf9M-86" value="has" style="edgeLabel;html=1;align=center;verticalAlign=middle;resizable=0;points=[];" vertex="1" connectable="0" parent="-vJRP48ZTgsoDx5BEf9M-66">
          <mxGeometry x="-0.2563" y="-1" relative="1" as="geometry">
            <mxPoint as="offset" />
          </mxGeometry>
        </mxCell>
        <mxCell id="-vJRP48ZTgsoDx5BEf9M-67" value="Money" style="swimlane;fontStyle=1;align=center;verticalAlign=top;childLayout=stackLayout;horizontal=1;startSize=26;horizontalStack=0;resizeParent=1;resizeParentMax=0;resizeLast=0;collapsible=1;marginBottom=0;whiteSpace=wrap;html=1;" vertex="1" parent="1">
          <mxGeometry x="290" y="1050" width="290" height="220" as="geometry" />
        </mxCell>
        <mxCell id="-vJRP48ZTgsoDx5BEf9M-68" value="&lt;div&gt;&lt;span class=&quot;&quot;&gt;#int wholePart&amp;nbsp;&lt;/span&gt;&lt;span class=&quot;&quot;&gt;&lt;/span&gt;&lt;/div&gt;&lt;div&gt;&lt;span class=&quot;&quot;&gt;#int fractionalPart&lt;br/&gt;&lt;/span&gt;&lt;span class=&quot;&quot;&gt;  #string currency&lt;br/&gt;&lt;/span&gt;&lt;span class=&quot;&quot;&gt;  +int WholePart&lt;br/&gt;&lt;/span&gt;&lt;span class=&quot;&quot;&gt;  +int FractionalPart&lt;br/&gt;&lt;/span&gt;&lt;span class=&quot;&quot;&gt;  +string Currency&lt;br/&gt;&lt;/span&gt;&lt;span class=&quot;&quot;&gt;  +static Dictionary&amp;lt;string, double&amp;gt; ExchangeRates&lt;/span&gt;&lt;/div&gt;" style="text;strokeColor=none;fillColor=none;align=left;verticalAlign=top;spacingLeft=4;spacingRight=4;overflow=hidden;rotatable=0;points=[[0,0.5],[1,0.5]];portConstraint=eastwest;whiteSpace=wrap;html=1;" vertex="1" parent="-vJRP48ZTgsoDx5BEf9M-67">
          <mxGeometry y="26" width="290" height="114" as="geometry" />
        </mxCell>
        <mxCell id="-vJRP48ZTgsoDx5BEf9M-69" value="" style="line;strokeWidth=1;fillColor=none;align=left;verticalAlign=middle;spacingTop=-1;spacingLeft=3;spacingRight=3;rotatable=0;labelPosition=right;points=[];portConstraint=eastwest;strokeColor=inherit;" vertex="1" parent="-vJRP48ZTgsoDx5BEf9M-67">
          <mxGeometry y="140" width="290" height="8" as="geometry" />
        </mxCell>
        <mxCell id="-vJRP48ZTgsoDx5BEf9M-70" value="&lt;div&gt;&lt;span class=&quot;&quot;&gt;+Money(int, int, string) &lt;br&gt;&lt;/span&gt;&lt;/div&gt;&lt;div&gt;&lt;span class=&quot;&quot;&gt;  +SetMoney(int, int)&amp;nbsp;&lt;/span&gt;&lt;span class=&quot;&quot;&gt;&lt;/span&gt;&lt;/div&gt;&lt;div&gt;&lt;span class=&quot;&quot;&gt;+double ConvertToCurrency(string)&lt;/span&gt;&lt;/div&gt;" style="text;strokeColor=none;fillColor=none;align=left;verticalAlign=top;spacingLeft=4;spacingRight=4;overflow=hidden;rotatable=0;points=[[0,0.5],[1,0.5]];portConstraint=eastwest;whiteSpace=wrap;html=1;" vertex="1" parent="-vJRP48ZTgsoDx5BEf9M-67">
          <mxGeometry y="148" width="290" height="72" as="geometry" />
        </mxCell>
        <mxCell id="-vJRP48ZTgsoDx5BEf9M-71" value="Inheritance" style="endArrow=block;endSize=16;endFill=0;html=1;rounded=0;exitX=0.5;exitY=0;exitDx=0;exitDy=0;entryX=0.003;entryY=1.002;entryDx=0;entryDy=0;entryPerimeter=0;" edge="1" parent="1" source="-vJRP48ZTgsoDx5BEf9M-74" target="-vJRP48ZTgsoDx5BEf9M-70">
          <mxGeometry width="160" relative="1" as="geometry">
            <mxPoint x="250" y="1390" as="sourcePoint" />
            <mxPoint x="290" y="1270" as="targetPoint" />
          </mxGeometry>
        </mxCell>
        <mxCell id="-vJRP48ZTgsoDx5BEf9M-72" value="Inheritance" style="endArrow=block;endSize=16;endFill=0;html=1;rounded=0;exitX=0.5;exitY=0;exitDx=0;exitDy=0;entryX=0.497;entryY=0.996;entryDx=0;entryDy=0;entryPerimeter=0;" edge="1" parent="1" source="-vJRP48ZTgsoDx5BEf9M-78" target="-vJRP48ZTgsoDx5BEf9M-70">
          <mxGeometry width="160" relative="1" as="geometry">
            <mxPoint x="434" y="1400" as="sourcePoint" />
            <mxPoint x="302" y="1280" as="targetPoint" />
          </mxGeometry>
        </mxCell>
        <mxCell id="-vJRP48ZTgsoDx5BEf9M-73" value="Inheritance" style="endArrow=block;endSize=16;endFill=0;html=1;rounded=0;exitX=0.5;exitY=0;exitDx=0;exitDy=0;entryX=0.997;entryY=1.002;entryDx=0;entryDy=0;entryPerimeter=0;" edge="1" parent="1" source="-vJRP48ZTgsoDx5BEf9M-82" target="-vJRP48ZTgsoDx5BEf9M-70">
          <mxGeometry width="160" relative="1" as="geometry">
            <mxPoint x="610" y="1390" as="sourcePoint" />
            <mxPoint x="610" y="1280" as="targetPoint" />
          </mxGeometry>
        </mxCell>
        <mxCell id="-vJRP48ZTgsoDx5BEf9M-74" value="USD" style="swimlane;fontStyle=1;align=center;verticalAlign=top;childLayout=stackLayout;horizontal=1;startSize=26;horizontalStack=0;resizeParent=1;resizeParentMax=0;resizeLast=0;collapsible=1;marginBottom=0;whiteSpace=wrap;html=1;" vertex="1" parent="1">
          <mxGeometry x="170" y="1390" width="160" height="60" as="geometry" />
        </mxCell>
        <mxCell id="-vJRP48ZTgsoDx5BEf9M-76" value="" style="line;strokeWidth=1;fillColor=none;align=left;verticalAlign=middle;spacingTop=-1;spacingLeft=3;spacingRight=3;rotatable=0;labelPosition=right;points=[];portConstraint=eastwest;strokeColor=inherit;" vertex="1" parent="-vJRP48ZTgsoDx5BEf9M-74">
          <mxGeometry y="26" width="160" height="8" as="geometry" />
        </mxCell>
        <mxCell id="-vJRP48ZTgsoDx5BEf9M-77" value="+USD(int, int)" style="text;strokeColor=none;fillColor=none;align=left;verticalAlign=top;spacingLeft=4;spacingRight=4;overflow=hidden;rotatable=0;points=[[0,0.5],[1,0.5]];portConstraint=eastwest;whiteSpace=wrap;html=1;" vertex="1" parent="-vJRP48ZTgsoDx5BEf9M-74">
          <mxGeometry y="34" width="160" height="26" as="geometry" />
        </mxCell>
        <mxCell id="-vJRP48ZTgsoDx5BEf9M-78" value="EUR" style="swimlane;fontStyle=1;align=center;verticalAlign=top;childLayout=stackLayout;horizontal=1;startSize=26;horizontalStack=0;resizeParent=1;resizeParentMax=0;resizeLast=0;collapsible=1;marginBottom=0;whiteSpace=wrap;html=1;" vertex="1" parent="1">
          <mxGeometry x="355" y="1400" width="160" height="60" as="geometry" />
        </mxCell>
        <mxCell id="-vJRP48ZTgsoDx5BEf9M-80" value="" style="line;strokeWidth=1;fillColor=none;align=left;verticalAlign=middle;spacingTop=-1;spacingLeft=3;spacingRight=3;rotatable=0;labelPosition=right;points=[];portConstraint=eastwest;strokeColor=inherit;" vertex="1" parent="-vJRP48ZTgsoDx5BEf9M-78">
          <mxGeometry y="26" width="160" height="8" as="geometry" />
        </mxCell>
        <mxCell id="-vJRP48ZTgsoDx5BEf9M-81" value="+EUR(int, int)" style="text;strokeColor=none;fillColor=none;align=left;verticalAlign=top;spacingLeft=4;spacingRight=4;overflow=hidden;rotatable=0;points=[[0,0.5],[1,0.5]];portConstraint=eastwest;whiteSpace=wrap;html=1;" vertex="1" parent="-vJRP48ZTgsoDx5BEf9M-78">
          <mxGeometry y="34" width="160" height="26" as="geometry" />
        </mxCell>
        <mxCell id="-vJRP48ZTgsoDx5BEf9M-82" value="UAH" style="swimlane;fontStyle=1;align=center;verticalAlign=top;childLayout=stackLayout;horizontal=1;startSize=26;horizontalStack=0;resizeParent=1;resizeParentMax=0;resizeLast=0;collapsible=1;marginBottom=0;whiteSpace=wrap;html=1;" vertex="1" parent="1">
          <mxGeometry x="530" y="1390" width="160" height="60" as="geometry" />
        </mxCell>
        <mxCell id="-vJRP48ZTgsoDx5BEf9M-84" value="" style="line;strokeWidth=1;fillColor=none;align=left;verticalAlign=middle;spacingTop=-1;spacingLeft=3;spacingRight=3;rotatable=0;labelPosition=right;points=[];portConstraint=eastwest;strokeColor=inherit;" vertex="1" parent="-vJRP48ZTgsoDx5BEf9M-82">
          <mxGeometry y="26" width="160" height="8" as="geometry" />
        </mxCell>
        <mxCell id="-vJRP48ZTgsoDx5BEf9M-85" value="+UAH(int, int)" style="text;strokeColor=none;fillColor=none;align=left;verticalAlign=top;spacingLeft=4;spacingRight=4;overflow=hidden;rotatable=0;points=[[0,0.5],[1,0.5]];portConstraint=eastwest;whiteSpace=wrap;html=1;" vertex="1" parent="-vJRP48ZTgsoDx5BEf9M-82">
          <mxGeometry y="34" width="160" height="26" as="geometry" />
        </mxCell>
      </root>
    </mxGraphModel>
  </diagram>
</mxfile>
